<?xml version="1.0" encoding="UTF-8"?>
<svg version="1.1" xmlns="http://www.w3.org/2000/svg" width="600" height="600">
<path d="M0 0 C198 0 396 0 600 0 C600 198 600 396 600 600 C402 600 204 600 0 600 C0 402 0 204 0 0 Z " fill="#FE0000" transform="translate(0,0)"/>
<path d="M0 0 C1.35549454 -0.005476 1.35549454 -0.005476 2.7383728 -0.01106262 C5.707206 -0.01912552 8.67548568 -0.00558581 11.64428711 0.0090332 C13.72684224 0.00955264 15.80939787 0.00903172 17.89195251 0.00752258 C22.25372659 0.00761214 26.61531522 0.01800161 30.97705078 0.03613281 C36.52887103 0.05872013 42.08041831 0.05938002 47.63227177 0.05261517 C51.93493513 0.04924826 56.23753794 0.05595772 60.54018974 0.0657444 C62.58481973 0.06955741 64.62945651 0.07076106 66.67408943 0.06915855 C81.30397627 0.06724261 95.57968857 0.50006726 109.73413086 4.62231445 C110.86141602 4.94437866 110.86141602 4.94437866 112.01147461 5.27294922 C126.18368008 9.48447237 140.17880038 16.93621184 151.60913086 26.37231445 C151.60913086 27.03231445 151.60913086 27.69231445 151.60913086 28.37231445 C152.41350586 28.71262695 152.41350586 28.71262695 153.23413086 29.05981445 C159.6190924 32.58834583 163.79480373 37.75909388 168.10913086 43.49731445 C168.96885498 44.63608032 168.96885498 44.63608032 169.84594727 45.79785156 C174.02108648 51.411439 177.6465017 57.02008899 180.60913086 63.37231445 C180.88950195 63.94739746 181.16987305 64.52248047 181.45874023 65.11499023 C191.17187843 85.11597789 192.37093963 104.25888583 192.58374023 126.13079834 C192.60958271 128.41220441 192.64681582 130.69317383 192.68725586 132.97436523 C192.75496794 136.83831915 192.80333966 140.70207183 192.83728027 144.56646729 C192.85154345 146.03083327 192.87014504 147.49516525 192.89367676 148.95941162 C193.36944144 181.27850128 181.32709142 209.67076461 159.67553711 233.4230957 C157.60913086 235.37231445 157.60913086 235.37231445 155.60913086 235.37231445 C155.60913086 236.03231445 155.60913086 236.69231445 155.60913086 237.37231445 C153.75003073 239.00929624 151.89640651 240.5105067 149.92163086 241.99731445 C149.33655762 242.44099365 148.75148438 242.88467285 148.14868164 243.34179688 C136.19292539 252.26942273 123.84500185 259.12260832 109.42163086 263.05981445 C108.32794189 263.36375122 108.32794189 263.36375122 107.2121582 263.67382812 C92.03962928 267.58358429 76.72854438 267.71816493 61.16186523 267.68798828 C57.71949346 267.6848009 54.27796125 267.70846837 50.83569336 267.73364258 C48.61694443 267.73591373 46.39819322 267.73661992 44.17944336 267.7355957 C43.16568634 267.74480545 42.15192932 267.7540152 41.10745239 267.76350403 C33.44150369 267.71420955 26.36829822 266.66050328 19.73413086 262.62231445 C14.91387614 257.51851534 12.50154958 252.37854554 12.60913086 245.37231445 C13.53374506 236.90218793 18.2666795 229.88023274 24.60913086 224.37231445 C25.59913086 224.04231445 26.58913086 223.71231445 27.60913086 223.37231445 C28.81795182 221.37214979 28.81795182 221.37214979 29.60913086 219.37231445 C30.26913086 219.37231445 30.92913086 219.37231445 31.60913086 219.37231445 C31.60913086 218.71231445 31.60913086 218.05231445 31.60913086 217.37231445 C32.26913086 217.37231445 32.92913086 217.37231445 33.60913086 217.37231445 C33.98038086 216.44418945 33.98038086 216.44418945 34.35913086 215.49731445 C35.84653455 212.96872819 37.04591095 212.65392441 39.60913086 211.37231445 C40.87717652 209.33871965 40.87717652 209.33871965 41.60913086 207.37231445 C42.26913086 207.37231445 42.92913086 207.37231445 43.60913086 207.37231445 C43.93913086 206.38231445 44.26913086 205.39231445 44.60913086 204.37231445 C53.94710561 195.93485718 64.37008251 193.41651958 76.54663086 192.43481445 C87.85410292 191.51405864 98.71452316 189.26285727 106.60913086 180.37231445 C107.26913086 179.38231445 107.92913086 178.39231445 108.60913086 177.37231445 C109.26913086 177.37231445 109.92913086 177.37231445 110.60913086 177.37231445 C110.98038086 176.41325195 110.98038086 176.41325195 111.35913086 175.43481445 C112.60913086 172.37231445 112.60913086 172.37231445 113.59301758 170.63623047 C117.44478771 163.40603816 117.14291596 156.25687029 116.98413086 148.24731445 C116.96831179 146.79899732 116.95310371 145.35067341 116.93847656 143.90234375 C116.80260943 133.65398967 116.3860933 123.41644028 115.79663086 113.18481445 C115.72686035 111.88592285 115.65708984 110.58703125 115.58520508 109.2487793 C115.50415527 108.03786621 115.42310547 106.82695312 115.33959961 105.5793457 C115.271521 104.52207275 115.20344238 103.4647998 115.13330078 102.37548828 C113.69108439 94.11246832 107.74798778 87.4916487 101.21459961 82.56762695 C89.78414573 75.33133962 78.61747178 74.86921187 65.48413086 74.68481445 C63.84347963 74.65157992 62.20285342 74.61708477 60.56225586 74.58129883 C56.57802056 74.49710241 52.59383502 74.42996685 48.60913086 74.37231445 C48.60548523 75.55866989 48.6018396 76.74502533 48.5980835 77.96733093 C48.56101241 89.19186159 48.50310802 100.41612097 48.42522812 111.64044476 C48.38585504 117.40988427 48.35361677 123.17917346 48.33813477 128.94873047 C48.32290113 134.52510502 48.28833708 140.10106604 48.24082184 145.67725563 C48.22607698 147.79607342 48.21809384 149.91495027 48.21724701 152.0338192 C48.2008077 172.55686112 45.06679804 185.9887188 30.30834961 200.96606445 C27.98518585 203.28265825 25.64184314 205.57807808 23.29663086 207.87231445 C22.0921518 209.06170711 20.88837063 210.25180693 19.68530273 211.44262695 C17.49840011 213.60521137 15.30784757 215.76392225 13.11181641 217.91723633 C11.60456769 219.39581335 10.10211256 220.87933276 8.60913086 222.37231445 C2.5230841 226.00475227 -2.77272607 228.00386935 -9.89086914 226.68481445 C-15.4005177 225.28656751 -19.05929203 223.03678584 -22.64086914 218.55981445 C-25.88756367 212.64619227 -26.68707502 206.99929453 -26.65829468 200.33999634 C-26.66282579 199.56040696 -26.6673569 198.78081757 -26.67202532 197.97760427 C-26.68462576 195.38076019 -26.6830518 192.78412701 -26.68139648 190.18725586 C-26.6873844 188.31907381 -26.69419055 186.45089424 -26.70175171 184.5827179 C-26.71939069 179.51862675 -26.72410617 174.45460323 -26.72538328 169.39048433 C-26.72680646 166.22426815 -26.73107921 163.05806907 -26.73637772 159.89185715 C-26.75487003 148.8394334 -26.7630492 137.78705784 -26.76147461 126.73461914 C-26.76027297 116.442298 -26.78138186 106.15018648 -26.81296194 95.85791838 C-26.83913464 87.01183991 -26.84984151 78.16582988 -26.84856379 69.319713 C-26.84805451 64.04051677 -26.85371907 58.76150696 -26.87491989 53.4823494 C-26.8943193 48.51641783 -26.89441502 43.55085022 -26.87988663 38.58490562 C-26.87779965 36.76648488 -26.88249275 34.94804124 -26.89460754 33.12965965 C-26.96009812 22.61564728 -26.86006193 14.08294968 -20.14086914 5.49731445 C-13.87681754 0.65691095 -7.63919226 -0.06984751 0 0 Z " fill="#FEFEFE" transform="translate(220.390869140625,180.627685546875)"/>
</svg>
